<?xml version="1.0" standalone="no"?>
<!DOCTYPE svg PUBLIC "-//W3C//DTD SVG 20010904//EN"
 "http://www.w3.org/TR/2001/REC-SVG-20010904/DTD/svg10.dtd">
<svg version="1.0" xmlns="http://www.w3.org/2000/svg"
 width="300.000000pt" height="300.000000pt" viewBox="0 0 300.000000 300.000000"
 preserveAspectRatio="xMidYMid meet">

<g transform="translate(0.000000,300.000000) scale(0.100000,-0.100000)"
fill="#000000" stroke="none">
<path d="M459 2872 c-74 -48 -229 -219 -272 -299 -130 -247 -98 -605 87 -985
400 -822 1349 -1520 2019 -1485 123 6 198 25 297 75 60 29 99 61 197 157 101
100 123 127 133 164 13 51 6 103 -20 146 -10 17 -130 141 -267 276 -240 238
-250 247 -300 258 -29 6 -58 9 -65 7 -7 -3 -26 -7 -42 -11 -19 -4 -69 -44
-137 -111 l-107 -104 -66 0 c-267 0 -709 359 -882 715 -49 101 -63 155 -64
234 l0 54 99 101 c54 56 106 115 115 133 21 42 20 99 -3 148 -23 49 -502 529
-544 544 -55 21 -129 14 -178 -17z m348 -354 c128 -128 233 -239 233 -247 0
-8 -40 -56 -90 -106 -131 -134 -157 -208 -125 -360 41 -196 155 -383 364 -599
139 -143 272 -242 424 -316 190 -92 321 -110 436 -59 25 11 82 57 136 109 50
50 98 90 106 90 19 0 479 -461 479 -481 0 -23 -186 -200 -244 -232 -80 -45
-157 -61 -286 -60 -184 1 -352 45 -575 152 -503 241 -984 718 -1235 1223 -66
134 -126 302 -152 423 -6 33 -12 112 -12 175 0 126 16 201 61 280 32 55 211
240 232 240 9 0 121 -105 248 -232z"/>
</g>
</svg>
