<?xml version="1.0" standalone="no"?>
<!DOCTYPE svg PUBLIC "-//W3C//DTD SVG 20010904//EN"
 "http://www.w3.org/TR/2001/REC-SVG-20010904/DTD/svg10.dtd">
<svg version="1.0" xmlns="http://www.w3.org/2000/svg"
 width="180.000000pt" height="180.000000pt" viewBox="0 0 180.000000 180.000000"
 preserveAspectRatio="xMidYMid meet">

<g transform="translate(0.000000,180.000000) scale(0.100000,-0.100000)"
fill="#00539b" stroke="none">
<path d="M743 1776 c-200 -38 -353 -123 -492 -272 -90 -97 -149 -196 -191
-322 -44 -131 -57 -256 -42 -379 51 -402 342 -709 739 -778 581 -101 1101 402
1024 990 -38 291 -224 552 -488 684 -155 77 -381 109 -550 77z m367 -225 c203
-69 373 -239 437 -436 106 -329 -49 -685 -362 -831 -98 -46 -218 -68 -325 -61
-496 33 -789 555 -560 996 88 169 235 286 430 342 92 27 287 21 380 -10z"/>
<path d="M827 1374 c-4 -4 -7 -125 -7 -268 l1 -261 214 -142 c118 -79 222
-143 230 -143 19 0 77 89 73 113 -2 11 -77 68 -183 140 l-180 122 -5 220 -5
220 -65 3 c-36 2 -69 0 -73 -4z"/>
</g>
</svg>
